# xmcd
#
# Track frame offsets: 
#        150
#        31237
#        55335
#        94395
#        123540
#        147285
#        168987
#        204870
#        227502
#        253737
#        274290
#
# Disc length: 4184 seconds
#
# Revision: 1
# Processed by: cddbd v1.5.2PL0 Copyright (c) Steve Scherf et al.
# Submitted via: ExactAudioCopyFreeDBPlugin 1.0
#
DISCID=9b10560b
DTITLE=Compilations - enja - Where the Music Lives 1997
DYEAR=1997
DGENRE=Jazz
TTITLE0=Melissa Walker  - I'm A Fool To Want You
TTITLE1=Rabih Abou-Khalil - Melissa Walker  - The Sphinx And I
TTITLE2=Jonny King - The Meltdown
TTITLE3=Franco Ambrosetti - Versace
TTITLE4=Bassdrumbone - Hence The Real Reason
TTITLE5=Robert Dick - The Soldier String Quartett  - India
TTITLE6=Bob Degen - My Old Flame
TTITLE7=Dusko Goykovich - Nights Of Skopje
TTITLE8=Benny Waters - I Cried Because I Love You
TTITLE9=Clave Y Guaguanco - Déjala En La Puntica
TTITLE10=Bobby Previte's Latin For Travellers - Deep Dish Chicago
EXTD=YEAR: 1997
EXTT0=
EXTT1=
EXTT2=
EXTT3=
EXTT4=
EXTT5=
EXTT6=
EXTT7=
EXTT8=
EXTT9=
EXTT10=
PLAYORDER=
